# xmcd
#
# Track frame offsets: 
#        150
#        20223
#        42291
#        67010
#        94563
#        112943
#        128899
#        153653
#        171744
#        187334
#        205951
#
# Disc length: 3057 seconds
#
# Revision: 0
# Processed by: cddbd v1.5.2PL0 Copyright (c) Steve Scherf et al.
# Submitted via: ExactAudioCopy v0.99pb4
#
DISCID=a60bef0b
DTITLE=Roki - Roki At Last
DYEAR=2008
DGENRE=Urban Grooves
TTITLE0=Chidzoka
TTITLE1=Nhliziyo
TTITLE2=Seiko ft Leonard Mapfumo
TTITLE3=Zverudo ft Maskiri and Leonard Mapfumo
TTITLE4=Zione
TTITLE5=Ndoda
TTITLE6=Aiyaho
TTITLE7=Jordan
TTITLE8=Suzzana
TTITLE9=Mumwe
TTITLE10=Love Song with Mafriq
EXTD=
EXTT0=
EXTT1=
EXTT2=
EXTT3=
EXTT4=
EXTT5=
EXTT6=
EXTT7=
EXTT8=
EXTT9=
EXTT10=
PLAYORDER=
